<?xml version="1.0" encoding="UTF-8"?>
<svg version="1.1" xmlns="http://www.w3.org/2000/svg" width="500" height="500">
<path d="M0 0 C2.0775521 -0.00435371 4.15510261 -0.00953905 6.23265076 -0.01548767 C11.84635576 -0.02881755 17.45999319 -0.02946309 23.07371092 -0.02692437 C27.77275459 -0.02585063 32.47178482 -0.03074828 37.1708256 -0.03552979 C48.26281986 -0.04660407 59.35478024 -0.04707402 70.44677734 -0.04101562 C81.86207348 -0.03497622 93.27724634 -0.04729087 104.69252145 -0.06858569 C114.51966043 -0.08623894 124.34676031 -0.09219721 134.17391455 -0.08894795 C140.0316304 -0.08714099 145.8892583 -0.08971257 151.74695969 -0.10366249 C157.25791596 -0.11629702 162.76868092 -0.11424374 168.27963448 -0.1012516 C170.2926865 -0.09889854 172.30575224 -0.1015745 174.31878853 -0.10987473 C204.95398055 -0.22700403 204.95398055 -0.22700403 216.30712891 10.2746582 C223.64046571 18.13577303 227.43436557 26.11340324 227.43017673 36.94992542 C227.43216778 38.08850083 227.43415883 39.22707624 227.43621022 40.40015393 C227.43329737 41.64625698 227.43038453 42.89236002 227.42738342 44.17622375 C227.42781956 45.51697456 227.42869526 46.85772528 227.42997259 48.19847554 C227.43220911 51.88129961 227.42820777 55.56409461 227.42319453 59.24691498 C227.41887814 63.21891601 227.4203373 67.19091538 227.4210968 71.16291809 C227.42162128 78.04421184 227.4184824 84.92549612 227.41285896 91.80678749 C227.4047337 101.75599316 227.40212769 111.70519425 227.40087097 121.65440287 C227.39868207 137.79613446 227.39202636 153.937861 227.38256836 170.07958984 C227.37339007 185.76025365 227.36631127 201.44091608 227.36206055 217.12158203 C227.36166646 218.57129146 227.36166646 218.57129146 227.36126442 220.05028794 C227.35995938 224.89877385 227.35869567 229.74725976 227.35745251 234.59574568 C227.34708493 274.82205339 227.329471 315.04835547 227.30712891 355.2746582 C223.7801852 354.11628399 220.39649458 352.9461401 217.06201172 351.31152344 C216.26296921 350.92195969 215.4639267 350.53239594 214.64067078 350.13102722 C213.77263321 349.70276138 212.90459564 349.27449554 212.01025391 348.83325195 C210.59151726 348.13810234 210.59151726 348.13810234 209.14411926 347.4289093 C207.05586383 346.4044697 204.96857228 345.37806357 202.8821106 344.34997559 C199.49803234 342.68304845 196.1105989 341.02308101 192.72290039 339.36352539 C178.28347309 332.27778372 163.91181396 325.06410236 149.57099533 317.78094673 C143.96893325 314.9383225 138.36179431 312.10571624 132.75497246 309.27249432 C127.17134841 306.44900173 121.59753303 303.60715446 116.02972126 300.75261974 C112.51597336 298.95636145 108.9939924 297.17673581 105.46967125 295.40132713 C103.81400614 294.56284168 102.16189177 293.71730426 100.51358986 292.8644352 C98.24279165 291.69058173 95.96084271 290.5420105 93.67456055 289.39868164 C92.68151098 288.87401637 92.68151098 288.87401637 91.66839981 288.33875179 C88.64276737 286.85587114 86.76773252 286.19081061 83.41720581 286.80073547 C82.39088043 287.28712997 81.36455505 287.77352448 80.30712891 288.2746582 C79.64954181 288.58225885 78.99195471 288.8898595 78.31444073 289.20678139 C75.9176138 290.34829474 73.54799614 291.5362756 71.1784668 292.73339844 C69.8280555 293.40958977 69.8280555 293.40958977 68.45036316 294.09944153 C65.47498109 295.59037572 62.50243441 297.08687753 59.52978516 298.58325195 C57.44132212 299.63062386 55.35264971 300.67757838 53.26377869 301.72413635 C47.75208998 304.48663411 42.24263705 307.25355919 36.73382568 310.02178955 C27.97980991 314.42031759 19.22321882 318.81370367 10.46514702 323.20414925 C7.44101642 324.72122281 4.41831624 326.24111572 1.39576721 327.76133728 C-9.30576426 333.13503354 -20.04875646 338.40637226 -30.86910152 343.53719997 C-37.29484693 346.5864205 -43.6685913 349.72480896 -49.98963261 352.9858408 C-54.48182015 355.2746582 -54.48182015 355.2746582 -56.69287109 355.2746582 C-56.80737238 313.94848246 -56.89544836 272.62232505 -56.94819774 231.29602204 C-56.9544511 226.41455155 -56.96092273 221.53308136 -56.9675293 216.65161133 C-56.96949663 215.19392229 -56.96949663 215.19392229 -56.9715037 213.70678499 C-56.99324672 197.98178427 -57.03266218 182.25687516 -57.07863507 166.53192875 C-57.1254304 150.39077939 -57.153173 134.24967793 -57.16331357 118.10846353 C-57.17016634 108.15237682 -57.1917923 98.19654906 -57.23245343 88.24054208 C-57.25892977 81.40877369 -57.26686103 74.57713874 -57.26037798 67.74532279 C-57.25718267 63.8065404 -57.26200155 59.8682098 -57.28889847 55.92950821 C-57.31338913 52.31661613 -57.31435794 48.70447584 -57.29736557 45.09154776 C-57.29428197 43.17967546 -57.31570519 41.26781085 -57.33827764 39.35606933 C-57.23580159 27.42076094 -53.47533306 17.97459435 -45.13818359 9.40356445 C-32.61361684 -1.5004114 -15.5759183 -0.02164738 0 0 Z M-20.69287109 37.2746582 C-20.69287109 130.3346582 -20.69287109 223.3946582 -20.69287109 319.2746582 C-6.13424739 312.42522381 -6.13424739 312.42522381 8.26342773 305.27392578 C9.98155378 304.39842701 11.69972053 303.52300812 13.41792297 302.6476593 C14.28962946 302.20244745 15.16133595 301.7572356 16.05945778 301.29853249 C20.7855407 298.88832661 25.52066149 296.4959655 30.25439453 294.10083008 C36.22688807 291.07844058 42.19633663 288.05050099 48.1550293 285.00097656 C53.02470722 282.50938249 57.9038479 280.03731427 62.79004478 277.57828331 C64.63922603 276.64321708 66.48481968 275.70102006 68.32663918 274.75153542 C70.88647237 273.43307796 73.45764377 272.13994076 76.03295898 270.85205078 C77.16207199 270.25935143 77.16207199 270.25935143 78.31399536 269.65467834 C81.63413952 268.0235971 83.49567224 267.14173094 87.20895386 267.75001526 C88.23135162 268.25314743 89.25374939 268.7562796 90.30712891 269.2746582 C91.0053649 269.60375215 91.7036009 269.93284609 92.42299557 270.27191257 C95.01868105 271.50884229 97.5852795 272.79581201 100.15209961 274.09155273 C101.12672653 274.57952332 102.10135345 275.0674939 103.10551453 275.57025146 C106.31650353 277.17898358 109.52466509 278.79327443 112.73291016 280.4074707 C114.96376004 281.52603112 117.19481663 282.64417937 119.42607117 283.76193237 C124.69244797 286.40108747 129.95717078 289.04351571 135.2209608 291.68782604 C145.22074637 296.71125778 155.22341998 301.72892412 165.22768211 306.74343491 C168.51979141 308.3946214 171.81053185 310.0485125 175.10115051 311.70266724 C177.10376521 312.70738626 179.10642294 313.71201954 181.10913086 314.71655273 C182.03118317 315.18094757 182.95323547 315.64534241 183.90322876 316.12380981 C184.73734787 316.5416272 185.57146698 316.95944458 186.43086243 317.3899231 C187.52394195 317.93910243 187.52394195 317.93910243 188.63910389 318.4993763 C190.15170229 319.34490616 190.15170229 319.34490616 191.30712891 319.2746582 C191.30712891 226.2146582 191.30712891 133.1546582 191.30712891 37.2746582 C121.34712891 37.2746582 51.38712891 37.2746582 -20.69287109 37.2746582 Z " fill="#1EAA76" transform="translate(170.69287109375,80.725341796875)"/>
<path d="M0 0 C0.86887083 -0.00226556 1.73774166 -0.00453111 2.6329419 -0.00686532 C5.52599419 -0.01316342 8.41899913 -0.01237867 11.3120575 -0.0115509 C13.39388591 -0.014545 15.47571376 -0.01794811 17.55754089 -0.02172852 C23.20019075 -0.03054693 28.84282542 -0.03290571 34.4854815 -0.0335443 C38.01403666 -0.034256 41.54258799 -0.03639258 45.0711422 -0.03904152 C57.39021931 -0.0482876 69.70928562 -0.0523773 82.02836609 -0.05158997 C93.4970055 -0.05098928 104.96559787 -0.06154126 116.43422538 -0.07733363 C126.29350261 -0.09042434 136.15276448 -0.09577322 146.01205033 -0.09513456 C151.89486388 -0.09488003 157.77763559 -0.09770612 163.66044044 -0.10831261 C169.1950984 -0.11801941 174.72967474 -0.11805506 180.26433563 -0.11079597 C182.28993283 -0.10975336 184.31553519 -0.11209371 186.34112358 -0.11815643 C205.99415217 -0.17314682 205.99415217 -0.17314682 215.02568054 2.13371277 C212.6661496 4.49324371 211.24672437 4.6251269 208.02568054 5.13371277 C207.69568054 4.47371277 207.36568054 3.81371277 207.02568054 3.13371277 C133.10568054 2.80371277 59.18568054 2.47371277 -16.97431946 2.13371277 C-16.97431946 1.80371277 -16.97431946 1.47371277 -16.97431946 1.13371277 C-11.27048319 0.31831141 -5.75715495 -0.01117283 0 0 Z " fill="#76BEA5" transform="translate(158.9743194580078,80.86628723144531)"/>
<path d="M0 0 C4.28493007 1.36577456 6.43145705 3.20681345 9.3125 6.625 C10.00988281 7.44226563 10.70726562 8.25953125 11.42578125 9.1015625 C11.94527344 9.72804688 12.46476562 10.35453125 13 11 C12.34 12.32 11.68 13.64 11 15 C10.67 13.68 10.34 12.36 10 11 C8.02 11.99 8.02 11.99 6 13 C6.33 11.35 6.66 9.7 7 8 C6.01 7.319375 6.01 7.319375 5 6.625 C4.34 6.08875 3.68 5.5525 3 5 C3 4.34 3 3.68 3 3 C2.01 3 1.02 3 0 3 C0 2.01 0 1.02 0 0 Z " fill="#3FB48A" transform="translate(380,87)"/>
<path d="M0 0 C2.64 0 5.28 0 8 0 C8 0.66 8 1.32 8 2 C9.093125 2.45375 10.18625 2.9075 11.3125 3.375 C13.82137765 4.41642091 15.69717067 5.46478044 18 7 C18 7.66 18 8.32 18 9 C13.64029169 7.65150163 9.68658562 5.95092154 5.625 3.875 C4.56539063 3.33617187 3.50578125 2.79734375 2.4140625 2.2421875 C1.61742187 1.83226562 0.82078125 1.42234375 0 1 C0 0.67 0 0.34 0 0 Z " fill="#65BEA0" transform="translate(279,377)"/>
<path d="M0 0 C0.99 0 1.98 0 3 0 C3 0.66 3 1.32 3 2 C3.66 2.33 4.32 2.66 5 3 C3.37750059 3.83819158 1.75191503 4.6704116 0.125 5.5 C-1.23238281 6.19609375 -1.23238281 6.19609375 -2.6171875 6.90625 C-5 8 -5 8 -7 8 C-6.67 6.02 -6.34 4.04 -6 2 C-3.69 2.33 -1.38 2.66 1 3 C0.67 2.01 0.34 1.02 0 0 Z " fill="#36AF82" transform="translate(129,424)"/>
<path d="M0 0 C1.2872642 2.5745284 1.34791629 4.14708645 1 7 C-1.35860436 9.27436849 -4.04191542 10.62660359 -7 12 C-5.63855967 6.80177328 -3.53269829 3.90456127 0 0 Z " fill="#30A97E" transform="translate(124,92)"/>
<path d="M0 0 C5.6194584 -0.57341412 8.36404155 0.4406642 12.71484375 3.7109375 C14 5 14 5 14 7 C9.0276578 5.50829734 4.58154261 3.39542583 0 1 C0 0.67 0 0.34 0 0 Z " fill="#69C0A3" transform="translate(315,395)"/>
<path d="M0 0 C-2.90600261 1.25664978 -4.79604584 2 -8 2 C-8.33 2.99 -8.66 3.98 -9 5 C-11.9375 6.75 -11.9375 6.75 -15 8 C-15.66 7.67 -16.32 7.34 -17 7 C-5.53226062 -2.04898542 -5.53226062 -2.04898542 0 0 Z " fill="#6AC0A0" transform="translate(142,84)"/>
<path d="M0 0 C8.87801315 0.752374 8.87801315 0.752374 13 4 C13.33 4.99 13.66 5.98 14 7 C9.0276578 5.50829734 4.58154261 3.39542583 0 1 C0 0.67 0 0.34 0 0 Z " fill="#6EC4A7" transform="translate(347,411)"/>
<path d="M0 0 C5.41390868 0.46671627 9.20517932 1.24297811 14 4 C14 4.99 14 5.98 14 7 C9.0276578 5.50829734 4.58154261 3.39542583 0 1 C0 0.67 0 0.34 0 0 Z " fill="#6EC4A7" transform="translate(329,402)"/>
<path d="M0 0 C-3.55991828 2.96659857 -7.65222543 5.381348 -12 7 C-12.66 6.67 -13.32 6.34 -14 6 C-9.38622597 1.15553727 -6.93694521 -0.40020838 0 0 Z " fill="#70C3A7" transform="translate(197,395)"/>
<path d="M0 0 C5.68502535 1.64566523 10.76681636 4.29032784 16 7 C15.01 7.66 14.02 8.32 13 9 C13 8.34 13 7.68 13 7 C12.05125 6.855625 11.1025 6.71125 10.125 6.5625 C7 6 7 6 5 5 C5 4.34 5 3.68 5 3 C3.35 2.67 1.7 2.34 0 2 C0 1.34 0 0.68 0 0 Z " fill="#62BF9E" transform="translate(305,372)"/>
<path d="M0 0 C5.02705917 0.12047418 8.09872551 0.24587237 12.0625 3.5625 C12.701875 4.366875 13.34125 5.17125 14 6 C13.01 6.495 13.01 6.495 12 7 C9.1796875 5.78515625 9.1796875 5.78515625 5.875 4.0625 C4.77929688 3.49660156 3.68359375 2.93070312 2.5546875 2.34765625 C1.71164062 1.90292969 0.86859375 1.45820313 0 1 C0 0.67 0 0.34 0 0 Z " fill="#71C5AA" transform="translate(297,386)"/>
<path d="M0 0 C1.258125 0.12375 2.51625 0.2475 3.8125 0.375 C4.87404297 0.47941406 4.87404297 0.47941406 5.95703125 0.5859375 C9.46539656 1.29700198 11.61169124 3.49796225 14 6 C13.01 6.495 13.01 6.495 12 7 C9.1796875 5.78515625 9.1796875 5.78515625 5.875 4.0625 C4.77929688 3.49660156 3.68359375 2.93070312 2.5546875 2.34765625 C1.71164062 1.90292969 0.86859375 1.45820313 0 1 C0 0.67 0 0.34 0 0 Z " fill="#72C6A9" transform="translate(265,370)"/>
<path d="M0 0 C4.23429756 1.31061591 8.07407404 2.94356259 12 5 C12 5.33 12 5.66 12 6 C10.35 6 8.7 6 7 6 C7 5.34 7 4.68 7 4 C4.69 4 2.38 4 0 4 C0 2.68 0 1.36 0 0 Z " fill="#5ABB99" transform="translate(287,363)"/>
<path d="M0 0 C1.58294782 -0.05437607 3.16644256 -0.09296271 4.75 -0.125 C5.63171875 -0.14820312 6.5134375 -0.17140625 7.421875 -0.1953125 C10.1135858 0.00860498 11.69904974 0.63448279 14 2 C11.69 2.66 9.38 3.32 7 4 C6.67 3.34 6.34 2.68 6 2 C2.97065509 1.34227572 2.97065509 1.34227572 0 1 C0 0.67 0 0.34 0 0 Z " fill="#48B38C" transform="translate(360,82)"/>
<path d="M0 0 C-3.12488567 2.52394612 -6.31314387 4.39701907 -10 6 C-10.66 5.67 -11.32 5.34 -12 5 C-8.12275678 0.93812615 -5.66451219 -0.2517561 0 0 Z " fill="#78C8AD" transform="translate(165,411)"/>
<path d="M0 0 C4.41889613 1.35021826 6.34345343 3.26115668 9 7 C7.35 6.67 5.7 6.34 4 6 C3.67 5.01 3.34 4.02 3 3 C2.01 3 1.02 3 0 3 C0 2.01 0 1.02 0 0 Z " fill="#58B997" transform="translate(380,87)"/>
<path d="M0 0 C0.85851562 0.55300781 0.85851562 0.55300781 1.734375 1.1171875 C0.90292969 1.42462891 0.90292969 1.42462891 0.0546875 1.73828125 C-0.66976563 2.00769531 -1.39421875 2.27710938 -2.140625 2.5546875 C-3.21957031 2.95494141 -3.21957031 2.95494141 -4.3203125 3.36328125 C-6.30211345 4.09635604 -6.30211345 4.09635604 -8.265625 5.1171875 C-8.925625 4.4571875 -9.585625 3.7971875 -10.265625 3.1171875 C-9.02678181 2.38951747 -7.77394159 1.68563935 -6.515625 0.9921875 C-5.81953125 0.59773438 -5.1234375 0.20328125 -4.40625 -0.203125 C-2.265625 -0.8828125 -2.265625 -0.8828125 0 0 Z " fill="#63BE9F" transform="translate(257.265625,347.8828125)"/>
<path d="M0 0 C3.91211733 1.15585285 6.8745041 2.35534962 10 5 C9.01 5.33 8.02 5.66 7 6 C7 5.34 7 4.68 7 4 C5.35 4 3.7 4 2 4 C1.34 2.68 0.68 1.36 0 0 Z " fill="#61BF9E" transform="translate(351,395)"/>
<path d="M0 0 C0 0.99 0 1.98 0 3 C-3 5 -3 5 -5.6875 4.625 C-6.450625 4.41875 -7.21375 4.2125 -8 4 C-2.7826087 0 -2.7826087 0 0 0 Z " fill="#4FB892" transform="translate(219,366)"/>
<path d="M0 0 C-3.1254959 2.64465038 -6.08788267 3.84414715 -10 5 C-9 2 -9 2 -7.25 0.8125 C-4.70039426 -0.10819096 -2.69076919 -0.14948718 0 0 Z " fill="#75C5A9" transform="translate(225,381)"/>
<path d="M0 0 C-3.1254959 2.64465038 -6.08788267 3.84414715 -10 5 C-9 2 -9 2 -7.25 0.8125 C-4.70039426 -0.10819096 -2.69076919 -0.14948718 0 0 Z " fill="#6FC3A5" transform="translate(257,365)"/>
<path d="M0 0 C5.75 1.75 5.75 1.75 8 4 C6.02 4.33 4.04 4.66 2 5 C1.34 3.35 0.68 1.7 0 0 Z " fill="#52B893" transform="translate(279,359)"/>
<path d="M0 0 C3.91211733 1.15585285 6.8745041 2.35534962 10 5 C8.35 5 6.7 5 5 5 C5 4.34 5 3.68 5 3 C3.35 2.67 1.7 2.34 0 2 C0 1.34 0 0.68 0 0 Z " fill="#69C1A1" transform="translate(337,388)"/>
<path d="M0 0 C3.91211733 1.15585285 6.8745041 2.35534962 10 5 C8.35 5 6.7 5 5 5 C5 4.34 5 3.68 5 3 C3.35 2.67 1.7 2.34 0 2 C0 1.34 0 0.68 0 0 Z " fill="#66C0A0" transform="translate(321,380)"/>
<path d="M0 0 C0.33 0.99 0.66 1.98 1 3 C-2.37817425 3.84454356 -4.67465243 4.10844919 -8 3 C-2.25 0 -2.25 0 0 0 Z " fill="#58BA97" transform="translate(231,360)"/>
<path d="M0 0 C-0.33 0.99 -0.66 1.98 -1 3 C-3.5625 4.1875 -3.5625 4.1875 -6 5 C-6.66 4.34 -7.32 3.68 -8 3 C-2.25 0 -2.25 0 0 0 Z " fill="#5ABA97" transform="translate(247,352)"/>
<path d="M0 0 C0.33 0.66 0.66 1.32 1 2 C0.00102287 4.99693138 -0.65130253 6.02709413 -3 8 C-3.66 8 -4.32 8 -5 8 C-3.8141763 4.62496331 -2.72426311 2.35277269 0 0 Z " fill="#63BE9E" transform="translate(124,92)"/>
</svg>
