<?xml version="1.0" encoding="UTF-8"?>
<svg version="1.1" xmlns="http://www.w3.org/2000/svg" width="500" height="500">
<path d="M0 0 C0.7966281 -0.00384115 1.59325619 -0.00768229 2.41402453 -0.01163983 C3.2833703 -0.01077335 4.15271607 -0.00990687 5.04840565 -0.00901413 C6.44058197 -0.01347081 6.44058197 -0.01347081 7.86088306 -0.01801753 C10.97831605 -0.02670567 14.09571065 -0.02821289 17.21315479 -0.02970505 C19.44541983 -0.03433317 21.67768407 -0.03935782 23.9099474 -0.04475021 C29.98036887 -0.0578775 36.05077927 -0.06431992 42.12121272 -0.06876087 C45.91372594 -0.0716913 49.70623613 -0.07579607 53.49874783 -0.08026505 C64.0048068 -0.09237428 74.51086398 -0.10275599 85.01692963 -0.10614014 C85.68914045 -0.1063597 86.36135127 -0.10657927 87.05393212 -0.10680549 C87.72772873 -0.10702377 88.40152533 -0.10724204 89.09574002 -0.10746694 C90.46105015 -0.1079104 91.82636029 -0.10835696 93.19167042 -0.10880661 C94.20752647 -0.10913875 94.20752647 -0.10913875 95.24390487 -0.10947761 C106.21129661 -0.11342347 117.17862183 -0.13087132 128.14598789 -0.15416613 C139.41351271 -0.17790471 150.68100535 -0.19008539 161.94855911 -0.19150805 C168.27181446 -0.19255604 174.594976 -0.19846252 180.91820812 -0.21632767 C186.86814305 -0.23281081 192.81791365 -0.23496255 198.76786327 -0.22618866 C200.94910593 -0.2254184 203.13035742 -0.22975952 205.3115778 -0.23964691 C208.29493086 -0.25237485 211.27770271 -0.24648473 214.26105213 -0.23606491 C215.11924429 -0.24412132 215.97743645 -0.25217772 216.86163443 -0.26047826 C227.03819478 -0.17765166 234.59583637 3.17181917 241.972188 10.13142776 C248.76049069 17.65919698 252.09917224 25.62317892 252.09523582 35.80669498 C252.09722687 36.94527039 252.09921792 38.0838458 252.1012693 39.2569235 C252.09835646 40.50302654 252.09544362 41.74912958 252.09244251 43.03299332 C252.09287865 44.37374412 252.09375435 45.71449484 252.09503168 47.0552451 C252.0972682 50.73806917 252.09326686 54.42086418 252.08825362 58.10368454 C252.08393723 62.07568557 252.08539639 66.04768494 252.08615589 70.01968765 C252.08668037 76.90098141 252.08354149 83.78226568 252.07791805 90.66355705 C252.06979279 100.61276272 252.06718678 110.56196381 252.06593006 120.51117244 C252.06374116 136.65290402 252.05708545 152.79463056 252.04762745 168.93635941 C252.03844916 184.61702321 252.03137036 200.29768564 252.02711964 215.97835159 C252.02672555 217.42806102 252.02672555 217.42806102 252.0263235 218.9070575 C252.02501847 223.75554341 252.02375476 228.60402932 252.0225116 233.45251524 C252.01214402 273.67882296 251.99453009 313.90512503 251.972188 354.13142776 C248.44524429 352.97305356 245.06155367 351.80290967 241.72707081 350.168293 C240.9280283 349.77872925 240.12898579 349.3891655 239.30572987 348.98779678 C238.4376923 348.55953094 237.56965473 348.13126511 236.675313 347.69002151 C235.25657635 346.9948719 235.25657635 346.9948719 233.80917835 346.28567886 C231.72092292 345.26123926 229.63363137 344.23483313 227.54716969 343.20674515 C224.16309143 341.53981801 220.77565799 339.87985058 217.38795948 338.22029495 C202.94853218 331.13455328 188.57687305 323.92087192 174.23605442 316.63771629 C168.63399234 313.79509206 163.0268534 310.96248581 157.42003155 308.12926388 C151.8364075 305.3057713 146.26259212 302.46392402 140.69478035 299.60938931 C137.18103245 297.81313102 133.65905149 296.03350537 130.13473034 294.25809669 C128.47906523 293.41961124 126.82695086 292.57407382 125.17864895 291.72120476 C122.90785074 290.54735129 120.6259018 289.39878007 118.33961964 288.2554512 C117.34657007 287.73078593 117.34657007 287.73078593 116.3334589 287.19552135 C113.30782646 285.7126407 111.43279161 285.04758017 108.0822649 285.65750504 C107.05593952 286.14389954 106.02961414 286.63029404 104.972188 287.13142776 C104.3146009 287.43902842 103.6570138 287.74662907 102.97949982 288.06355095 C100.58267289 289.2050643 98.21305523 290.39304516 95.84352589 291.590168 C94.49311459 292.26635933 94.49311459 292.26635933 93.11542225 292.95621109 C90.14004018 294.44714528 87.1674935 295.94364709 84.19484425 297.44002151 C82.10638121 298.48739342 80.0177088 299.53434794 77.92883778 300.58090591 C72.41714907 303.34340367 66.90769613 306.11032875 61.39888477 308.87855911 C52.644869 313.27708715 43.88827791 317.67047323 35.13020611 322.06091881 C32.10607551 323.57799237 29.08337533 325.09788528 26.0608263 326.61810684 C15.35929483 331.99180311 4.61630263 337.26314182 -6.20404243 342.39396954 C-12.62978784 345.44319007 -19.00353221 348.58157852 -25.32457352 351.84261036 C-29.81676106 354.13142776 -29.81676106 354.13142776 -32.027812 354.13142776 C-32.14231329 312.80525202 -32.23038927 271.47909461 -32.28313865 230.1527916 C-32.28939201 225.27132111 -32.29586364 220.38985092 -32.30247021 215.50838089 C-32.30443754 214.05069185 -32.30443754 214.05069185 -32.30644461 212.56355456 C-32.32818763 196.83855384 -32.36760309 181.11364473 -32.41357598 165.38869831 C-32.46037131 149.24754895 -32.48811391 133.1064475 -32.49825448 116.96523309 C-32.50510725 107.00914638 -32.52673321 97.05331863 -32.56739434 87.09731165 C-32.59387068 80.26554326 -32.60180194 73.4339083 -32.59531889 66.60209236 C-32.59212358 62.66330996 -32.59694246 58.72497936 -32.62383938 54.78627777 C-32.64833004 51.17338569 -32.64929885 47.5612454 -32.63230648 43.94831732 C-32.62922288 42.03644502 -32.6506461 40.12458042 -32.67321855 38.21283889 C-32.57061653 26.26285978 -28.79134456 16.88379775 -20.5043745 8.26424026 C-14.69649827 3.26250458 -7.72226708 0.01402742 0 0 Z " fill="#19A974" transform="translate(146.02781200408936,81.86857223510742)"/>
<path d="M0 0 C28.97775703 -0.04560751 57.95551057 -0.08101022 86.93329631 -0.10213066 C90.35299187 -0.10463213 93.77268736 -0.10722077 97.19238281 -0.10986328 C98.2135992 -0.11065021 98.2135992 -0.11065021 99.25544623 -0.11145304 C110.28464915 -0.12015992 121.31383127 -0.13593145 132.34302184 -0.15430559 C143.65672498 -0.17299678 154.97041268 -0.18396532 166.28413224 -0.18817699 C172.6402454 -0.1907889 178.99631132 -0.1969461 185.35240936 -0.21146011 C191.33097061 -0.22500185 197.30946503 -0.22922955 203.28804016 -0.22621536 C205.48589185 -0.22676705 207.68374571 -0.23076471 209.88158417 -0.23841095 C212.87554582 -0.2483188 215.86925303 -0.24598406 218.86322021 -0.24050903 C219.73870506 -0.24633472 220.61418991 -0.2521604 221.5162046 -0.25816262 C222.71947217 -0.25218947 222.71947217 -0.25218947 223.94704819 -0.24609566 C224.98368469 -0.24723482 224.98368469 -0.24723482 226.04126334 -0.24839699 C228.35263436 0.04471929 229.98239109 0.86266279 232 2 C229.69 2.66 227.38 3.32 225 4 C224.67 3.34 224.34 2.68 224 2 C150.08 1.67 76.16 1.34 0 1 C0 0.67 0 0.34 0 0 Z " fill="#319E77" transform="translate(142,82)"/>
<path d="M0 0 C4.28493007 1.36577456 6.43145705 3.20681345 9.3125 6.625 C10.00988281 7.44226563 10.70726562 8.25953125 11.42578125 9.1015625 C11.94527344 9.72804688 12.46476562 10.35453125 13 11 C12.34 12.32 11.68 13.64 11 15 C10.67 13.68 10.34 12.36 10 11 C8.02 11.99 8.02 11.99 6 13 C6.33 11.35 6.66 9.7 7 8 C6.01 7.319375 6.01 7.319375 5 6.625 C4.34 6.08875 3.68 5.5525 3 5 C3 4.34 3 3.68 3 3 C2.01 3 1.02 3 0 3 C0 2.01 0 1.02 0 0 Z " fill="#3FB48A" transform="translate(380,87)"/>
<path d="M0 0 C2.64 0 5.28 0 8 0 C8 0.66 8 1.32 8 2 C9.093125 2.45375 10.18625 2.9075 11.3125 3.375 C13.82137765 4.41642091 15.69717067 5.46478044 18 7 C18 7.66 18 8.32 18 9 C13.64029169 7.65150163 9.68658562 5.95092154 5.625 3.875 C4.56539063 3.33617187 3.50578125 2.79734375 2.4140625 2.2421875 C1.61742187 1.83226562 0.82078125 1.42234375 0 1 C0 0.67 0 0.34 0 0 Z " fill="#66BF9F" transform="translate(279,377)"/>
<path d="M0 0 C0.99 0 1.98 0 3 0 C3 0.66 3 1.32 3 2 C3.66 2.33 4.32 2.66 5 3 C3.37750059 3.83819158 1.75191503 4.6704116 0.125 5.5 C-1.23238281 6.19609375 -1.23238281 6.19609375 -2.6171875 6.90625 C-5 8 -5 8 -7 8 C-6.67 6.02 -6.34 4.04 -6 2 C-3.69 2.33 -1.38 2.66 1 3 C0.67 2.01 0.34 1.02 0 0 Z " fill="#36AF82" transform="translate(129,424)"/>
<path d="M0 0 C1.2872642 2.5745284 1.34791629 4.14708645 1 7 C-1.35860436 9.27436849 -4.04191542 10.62660359 -7 12 C-5.63855967 6.80177328 -3.53269829 3.90456127 0 0 Z " fill="#30A97E" transform="translate(124,92)"/>
<path d="M0 0 C-2.90600261 1.25664978 -4.79604584 2 -8 2 C-8.33 2.99 -8.66 3.98 -9 5 C-11.9375 6.75 -11.9375 6.75 -15 8 C-15.66 7.67 -16.32 7.34 -17 7 C-5.53226062 -2.04898542 -5.53226062 -2.04898542 0 0 Z " fill="#6AC0A0" transform="translate(142,84)"/>
<path d="M0 0 C8.87801315 0.752374 8.87801315 0.752374 13 4 C13.33 4.99 13.66 5.98 14 7 C9.0276578 5.50829734 4.58154261 3.39542583 0 1 C0 0.67 0 0.34 0 0 Z " fill="#6FC3A7" transform="translate(347,411)"/>
<path d="M0 0 C5.93333307 0.40919538 9.38048494 1.18890008 14 5 C14 5.66 14 6.32 14 7 C9.0276578 5.50829734 4.58154261 3.39542583 0 1 C0 0.67 0 0.34 0 0 Z " fill="#6FC3A6" transform="translate(315,395)"/>
<path d="M0 0 C8.87801315 0.752374 8.87801315 0.752374 13 4 C13.33 4.99 13.66 5.98 14 7 C9.0276578 5.50829734 4.58154261 3.39542583 0 1 C0 0.67 0 0.34 0 0 Z " fill="#71C5A9" transform="translate(329,402)"/>
<path d="M0 0 C5.02705917 0.12047418 8.09872551 0.24587237 12.0625 3.5625 C12.701875 4.366875 13.34125 5.17125 14 6 C13.01 6.495 13.01 6.495 12 7 C9.1796875 5.78515625 9.1796875 5.78515625 5.875 4.0625 C4.77929688 3.49660156 3.68359375 2.93070312 2.5546875 2.34765625 C1.71164062 1.90292969 0.86859375 1.45820313 0 1 C0 0.67 0 0.34 0 0 Z " fill="#70C5AA" transform="translate(297,386)"/>
<path d="M0 0 C1.258125 0.12375 2.51625 0.2475 3.8125 0.375 C4.87404297 0.47941406 4.87404297 0.47941406 5.95703125 0.5859375 C9.46539656 1.29700198 11.61169124 3.49796225 14 6 C13.01 6.495 13.01 6.495 12 7 C9.1796875 5.78515625 9.1796875 5.78515625 5.875 4.0625 C4.77929688 3.49660156 3.68359375 2.93070312 2.5546875 2.34765625 C1.71164062 1.90292969 0.86859375 1.45820313 0 1 C0 0.67 0 0.34 0 0 Z " fill="#72C5AA" transform="translate(265,370)"/>
<path d="M0 0 C1.98 0 3.96 0 6 0 C2.87511433 2.52394612 -0.31314387 4.39701907 -4 6 C-4.66 5.67 -5.32 5.34 -6 5 C-4.6875 3.5 -4.6875 3.5 -3 2 C-2.01 2 -1.02 2 0 2 C0 1.34 0 0.68 0 0 Z " fill="#75C6AB" transform="translate(159,411)"/>
<path d="M0 0 C1.58294782 -0.05437607 3.16644256 -0.09296271 4.75 -0.125 C5.63171875 -0.14820312 6.5134375 -0.17140625 7.421875 -0.1953125 C10.1135858 0.00860498 11.69904974 0.63448279 14 2 C11.69 2.66 9.38 3.32 7 4 C6.67 3.34 6.34 2.68 6 2 C2.97065509 1.34227572 2.97065509 1.34227572 0 1 C0 0.67 0 0.34 0 0 Z " fill="#48B38B" transform="translate(360,82)"/>
<path d="M0 0 C4.41889613 1.35021826 6.34345343 3.26115668 9 7 C7.35 6.67 5.7 6.34 4 6 C3.67 5.01 3.34 4.02 3 3 C2.01 3 1.02 3 0 3 C0 2.01 0 1.02 0 0 Z " fill="#58B996" transform="translate(380,87)"/>
<path d="M0 0 C-3.1254959 2.64465038 -6.08788267 3.84414715 -10 5 C-9 2 -9 2 -7.25 0.8125 C-4.70039426 -0.10819096 -2.69076919 -0.14948718 0 0 Z " fill="#76C6AA" transform="translate(225,381)"/>
<path d="M0 0 C2.4375 1.25 2.4375 1.25 3.4375 4.25 C-2.3125 2.5 -2.3125 2.5 -4.5625 0.25 C-2.5625 -0.75 -2.5625 -0.75 0 0 Z " fill="#69C2A0" transform="translate(259.5625,364.75)"/>
<path d="M0 0 C0.33 0.66 0.66 1.32 1 2 C0.00102287 4.99693138 -0.65130253 6.02709413 -3 8 C-3.66 8 -4.32 8 -5 8 C-3.8141763 4.62496331 -2.72426311 2.35277269 0 0 Z " fill="#62BE9E" transform="translate(124,92)"/>
</svg>
